<?xml version="1.0" standalone="no"?>
<!DOCTYPE svg PUBLIC "-//W3C//DTD SVG 20010904//EN"
 "http://www.w3.org/TR/2001/REC-SVG-20010904/DTD/svg10.dtd">
<svg version="1.0" xmlns="http://www.w3.org/2000/svg"
 width="200.000000pt" height="200.000000pt" viewBox="0 0 200.000000 200.000000"
 preserveAspectRatio="xMidYMid meet">

<g transform="translate(0.000000,200.000000) scale(0.100000,-0.100000)"
fill="#000000" stroke="none">
<path d="M934 1520 c-142 -44 -223 -207 -169 -337 59 -140 222 -200 353 -128
176 96 177 344 2 439 -56 30 -136 41 -186 26z m169 -62 c23 -13 55 -43 72 -66
27 -39 30 -52 30 -117 0 -65 -3 -78 -30 -117 -97 -138 -306 -118 -370 34 -77
185 123 363 298 266z"/>
<path d="M920 964 c-170 -33 -305 -135 -380 -288 -32 -64 -41 -94 -43 -141
l-2 -60 503 -3 c571 -3 524 -11 504 87 -35 170 -171 324 -337 381 -59 21 -194
34 -245 24z m172 -45 c143 -30 271 -130 332 -260 19 -41 38 -91 42 -111 l6
-38 -471 0 c-416 0 -471 2 -471 15 0 33 43 142 77 192 105 158 301 240 485
202z"/>
</g>
</svg>
